<svg width="450" height="450" viewBox="0 0 450 450" fill="none" xmlns="http://www.w3.org/2000/svg">
<path fill-rule="evenodd" clip-rule="evenodd" d="M289.037 237.94V284.922C289.037 313.291 265.43 336.501 236.575 336.501V265.835L236.566 208.879C236.566 203.351 241.166 196.511 246.789 193.677L439.017 96.8022C444.641 93.9679 449.24 96.1731 449.24 101.699V152.757L289.037 237.94L289.037 237.94Z" fill="#00CED1"/>
<path fill-rule="evenodd" clip-rule="evenodd" d="M236.575 171.75L236.566 114.793C236.566 109.265 241.166 102.425 246.789 99.5908L439.017 2.71615C444.641 -0.118138 449.24 2.08775 449.24 7.61374V64.6719L236.575 171.749V171.75Z" fill="#00CED1"/>
<path fill-rule="evenodd" clip-rule="evenodd" d="M380.614 305.559C245.86 385.837 233.902 352.55 237.417 449.999L449.223 337.616L450.002 199.516L380.82 234.697V305.655L380.615 305.559H380.614Z" fill="#00CED1"/>
<path fill-rule="evenodd" clip-rule="evenodd" d="M69.3876 305.437C204.142 385.715 216.1 352.428 212.584 449.877L0.778443 337.494L0 199.394L69.1821 234.574V305.533L69.3873 305.437H69.3876Z" fill="#00CED1"/>
<path fill-rule="evenodd" clip-rule="evenodd" d="M211.385 336.024L211.515 111.016C211.515 111.016 210.006 97.7797 195.846 95.0405L12.8871 0.92649C12.8871 0.92649 6.59798 -3.84649 0.535156 8.27429L0.58278 128.292C0.58278 128.292 4.02203 168.316 50.6669 180.183L50.8714 111.192C50.8714 111.192 56.3115 85.4762 77.6173 105.743L77.6875 195.908C77.6875 195.908 82.1541 242.744 131.533 249.887L131.015 129.99C131.015 129.99 146.466 131.729 159.998 165.339L160.532 282.549C160.532 282.549 168.616 331.22 211.386 336.024H211.385Z" fill="#00CED1"/>
</svg>
